<svg width="1312" height="1642" viewBox="0 0 1312 1642" fill="none" xmlns="http://www.w3.org/2000/svg">
    <g filter="url(#filter0_f_4893_775)">
        <path d="M938.32 436.391C976.683 379.242 1048.65 361.39 1113.03 352.139C1112.89 352.032 1112.74 351.925 1112.6 351.818C1112.59 351.812 1112.58 351.807 1112.58 351.801C1108.9 351.769 1109.59 351.702 1112.45 351.706C1107.54 347.974 1119.58 351.481 1122.31 351.796C1122.59 351.808 1122.72 351.818 1122.62 351.818C1122.54 351.818 1122.43 351.81 1122.31 351.796C1121.51 351.761 1119.52 351.703 1118.09 351.778C1118.61 351.79 1119.14 351.803 1119.69 351.818C1119.76 351.82 1119.83 351.824 1119.91 351.831C1121.97 351.995 1126.57 353.614 1129.46 355.205C1132.3 354.656 1135.18 354.018 1137.29 354.018C1143.07 354.018 1149.19 353.376 1154.76 355.118C1176.6 361.942 1197.46 370.879 1216.48 383.716C1253.81 408.915 1269.97 442.402 1273.56 487.232C1276.46 523.541 1275.85 556.146 1262.19 590.381C1245.19 632.979 1229.73 677.209 1200.84 713.574C1175.01 746.078 1144.04 777.336 1113.09 804.99C1095.02 821.133 1078.77 840.011 1070.8 863.164C1056.76 903.981 1061.64 953.598 1075.93 993.812C1090.1 1033.66 1103.74 1073.06 1112.11 1114.68C1117.73 1142.6 1122.03 1186.27 1104.78 1210.74C1083.81 1240.49 1049.49 1261.8 1017.03 1276.74C976.869 1295.22 945.196 1295.27 903.978 1280.04C859.157 1263.47 823.372 1239.03 789.707 1205.37C753.211 1168.87 730.962 1126.12 702.812 1083.64C679.034 1047.76 653.161 1026.35 614.696 1007.38C570.846 985.753 519.634 977.36 470.971 976.58C435.43 976.01 393.07 978.932 368.677 947.493C349.143 922.315 341.973 886.624 361.711 859.987C390.83 820.69 433.684 814.571 479.037 806.09C515.614 799.251 550.925 799.83 587.931 801.568C614.737 802.828 642.769 804.465 669.203 798.635C732.76 784.619 786.735 731.543 824.416 680.942C857.056 637.111 876.476 586.503 894.812 535.507C907.073 501.404 917.916 466.786 938.32 436.391Z" fill="#632F98" fill-opacity="0.5"/>
    </g>
    <defs>
        <filter id="filter0_f_4893_775" x="0" y="0" width="1624.96" height="1641.06" filterUnits="userSpaceOnUse" color-interpolation-filters="sRGB">
            <feFlood flood-opacity="0" result="BackgroundImageFix"/>
            <feBlend mode="normal" in="SourceGraphic" in2="BackgroundImageFix" result="shape"/>
            <feGaussianBlur stdDeviation="175" result="effect1_foregroundBlur_4893_775"/>
        </filter>
    </defs>
</svg>

