<svg width="1200" height="1739" viewBox="0 0 1200 1739" fill="none" xmlns="http://www.w3.org/2000/svg">
    <g filter="url(#filter0_f_4893_776)">
        <path d="M720.328 441.699C737.352 451.275 756.157 464.826 775.645 471.409C767.168 466.153 761.189 463.264 778.384 471.124C781.532 472.564 785.695 473.599 785.978 474.175C786.149 474.523 784.905 474.703 781.167 474.703C781.035 474.703 780.895 474.702 780.747 474.699C781.43 475.161 782.104 475.628 782.758 476.095C785.216 477.851 781.304 476.362 776.751 474.503C776.436 474.484 776.118 474.464 775.799 474.445C779.794 476.062 783.716 477.619 785.16 478.147C787.733 478.277 790.448 478.282 793.494 478.282C812.356 478.282 838.078 496.008 843.597 514.07C860.403 569.07 837.654 606.828 801.844 647.28C749.655 706.235 676.385 738.528 620.917 793.215C597.004 816.791 572.695 839.113 551.131 864.989C520.807 901.378 509.353 945.924 482.935 984.083C463.234 1012.54 457.849 1056.84 451.124 1089.86C443.388 1127.83 441.368 1166.3 437.604 1204.78C433.513 1246.6 427.527 1287.93 422.493 1329.64C418.863 1359.71 418.353 1383.62 407.979 1412.34C386.823 1470.93 304.536 1504.99 250.712 1467.42C165.893 1408.21 140.977 1299.23 114.32 1206.56C102.359 1164.98 88.614 1122.96 66.6029 1085.48C41.6638 1043.02 5.97035 1008.84 -21.475 968.178C-76.039 887.342 -11.9325 777.574 55.4689 727.604C98.4657 695.727 157.083 681.458 205.778 660.005C251.693 639.776 298.66 616.297 330.837 576.5C357.64 543.348 372.816 503.879 366.823 461.183L366.684 460.192C361.511 423.358 356.674 388.916 395.851 369.328C476.318 329.094 551.195 359.402 627.418 390.255L628.273 390.602C660.326 403.575 690.093 424.692 720.328 441.699Z" fill="#632F98" fill-opacity="0.5"/>
    </g>
    <defs>
        <filter id="filter0_f_4893_776" x="-392" y="0" width="1591.24" height="1833.18" filterUnits="userSpaceOnUse" color-interpolation-filters="sRGB">
            <feFlood flood-opacity="0" result="BackgroundImageFix"/>
            <feBlend mode="normal" in="SourceGraphic" in2="BackgroundImageFix" result="shape"/>
            <feGaussianBlur stdDeviation="175" result="effect1_foregroundBlur_4893_776"/>
        </filter>
    </defs>
</svg>
