<svg width="94" height="93" viewBox="0 0 94 93" fill="none" xmlns="http://www.w3.org/2000/svg">
    <ellipse cx="47" cy="46.5" rx="47" ry="46.5" fill="url(#paint0_linear_4893_954)"/>
    <path d="M70.7727 65.2893C76.4982 65.2893 81.1488 60.6958 81.1488 55.0182C81.1488 49.3406 76.4982 44.7471 70.7727 44.7471C65.0471 44.7471 60.3965 49.3406 60.3965 55.0182C60.3965 60.6958 65.0471 65.2893 70.7727 65.2893Z" fill="#B9B9B9" stroke="#2A0153"/>
    <rect x="69.8906" y="49.4346" width="1.93996" height="2.96623" fill="#2A0153"/>
    <rect width="1.92932" height="2.98276" transform="matrix(0.69685 0.717178 -0.724625 0.689185 68.3486 56.2393)" fill="#2A0153"/>
    <rect width="1.92932" height="2.98276" transform="matrix(0.69685 0.717178 -0.724625 0.689185 74.1689 50.4814)" fill="#2A0153"/>
    <rect x="69.8906" y="57.6353" width="1.93996" height="2.96623" fill="#2A0153"/>
    <rect width="1.91933" height="2.99811" transform="matrix(0.0161348 0.999869 -0.999876 0.0157935 68.3037 54.1455)" fill="#2A0153"/>
    <rect width="1.91933" height="2.99811" transform="matrix(0.0161348 0.999869 -0.999876 0.0157935 76.416 54.1455)" fill="#2A0153"/>
    <rect width="1.92922" height="2.98291" transform="matrix(-0.697393 0.716729 -0.7241 -0.689654 69.6924 52.5386)" fill="#2A0153"/>
    <path d="M78.8254 36.824C78.8254 41.146 75.2825 44.6588 70.901 44.6588C66.5194 44.6588 62.9766 41.146 62.9766 36.824C62.9766 32.502 66.5194 28.9893 70.901 28.9893C75.2825 28.9893 78.8254 32.502 78.8254 36.824Z" fill="#B9B9B9" stroke="#2A0153"/>
    <rect x="70.1494" y="32.061" width="1.65479" height="2.5302" fill="#2A0153"/>
    <rect width="1.64571" height="2.5443" transform="matrix(0.69685 0.717178 -0.724625 0.689185 68.834 37.8657)" fill="#2A0153"/>
    <rect width="1.64571" height="2.54431" transform="matrix(0.69685 0.717178 -0.724625 0.689185 73.7979 32.9541)" fill="#2A0153"/>
    <rect x="70.1494" y="39.0566" width="1.65479" height="2.5302" fill="#2A0153"/>
    <rect width="1.63719" height="2.5574" transform="matrix(0.0161348 0.999869 -0.999876 0.0157935 68.7949 36.0796)" fill="#2A0153"/>
    <rect width="1.6372" height="2.5574" transform="matrix(0.0161348 0.999869 -0.999876 0.0157935 75.7148 36.0796)" fill="#2A0153"/>
    <rect width="1.64563" height="2.54443" transform="matrix(-0.697393 0.716728 -0.7241 -0.689654 69.9795 34.709)" fill="#2A0153"/>
    <mask id="path-18-outside-1_4893_954" maskUnits="userSpaceOnUse" x="10.4961" y="28.9429" width="49" height="35" fill="black">
        <rect fill="white" x="10.4961" y="28.9429" width="49" height="35"/>
        <path d="M23.1051 62.9429L12.6241 30.0429H18.0291L24.3741 50.6289C24.6248 51.3182 24.8441 52.1329 25.0321 53.0729C25.2201 54.0129 25.3924 54.9215 25.5491 55.7989C25.7371 56.6449 25.8781 57.3185 25.9721 57.8199L24.6091 57.7729C25.0791 56.1122 25.4394 54.8275 25.6901 53.9189C25.9721 53.0102 26.1914 52.3209 26.3481 51.8509C26.5048 51.3495 26.6458 50.9265 26.7711 50.5819L32.6931 35.7299H37.2521L42.9861 50.5819C43.2994 51.3339 43.5658 52.0859 43.7851 52.8379C44.0358 53.5585 44.2551 54.2949 44.4431 55.0469C44.6311 55.7675 44.8348 56.5352 45.0541 57.3499L43.8321 57.6789C43.9888 56.8329 44.0984 56.1749 44.1611 55.7049C44.2551 55.2035 44.3334 54.7962 44.3961 54.4829C44.4588 54.1695 44.5214 53.8719 44.5841 53.5899C44.6468 53.2765 44.7408 52.8849 44.8661 52.4149C45.0228 51.9449 45.2264 51.3025 45.4771 50.4879L51.7281 30.0429H57.1801L46.6991 62.9429H43.1741L34.4791 42.3569L34.9021 42.5449L26.5361 62.9429H23.1051Z"/>
    </mask>
    <path d="M23.1051 62.9429L12.6241 30.0429H18.0291L24.3741 50.6289C24.6248 51.3182 24.8441 52.1329 25.0321 53.0729C25.2201 54.0129 25.3924 54.9215 25.5491 55.7989C25.7371 56.6449 25.8781 57.3185 25.9721 57.8199L24.6091 57.7729C25.0791 56.1122 25.4394 54.8275 25.6901 53.9189C25.9721 53.0102 26.1914 52.3209 26.3481 51.8509C26.5048 51.3495 26.6458 50.9265 26.7711 50.5819L32.6931 35.7299H37.2521L42.9861 50.5819C43.2994 51.3339 43.5658 52.0859 43.7851 52.8379C44.0358 53.5585 44.2551 54.2949 44.4431 55.0469C44.6311 55.7675 44.8348 56.5352 45.0541 57.3499L43.8321 57.6789C43.9888 56.8329 44.0984 56.1749 44.1611 55.7049C44.2551 55.2035 44.3334 54.7962 44.3961 54.4829C44.4588 54.1695 44.5214 53.8719 44.5841 53.5899C44.6468 53.2765 44.7408 52.8849 44.8661 52.4149C45.0228 51.9449 45.2264 51.3025 45.4771 50.4879L51.7281 30.0429H57.1801L46.6991 62.9429H43.1741L34.4791 42.3569L34.9021 42.5449L26.5361 62.9429H23.1051Z" fill="#B9B9B9"/>
    <path d="M23.1051 62.9429L22.1523 63.2464L22.3741 63.9429H23.1051V62.9429ZM12.6241 30.0429V29.0429H11.256L11.6713 30.3464L12.6241 30.0429ZM18.0291 30.0429L18.9847 29.7483L18.7673 29.0429H18.0291V30.0429ZM24.3741 50.6289L23.4185 50.9234L23.4258 50.9472L23.4343 50.9706L24.3741 50.6289ZM25.0321 53.0729L26.0127 52.8768L25.0321 53.0729ZM25.5491 55.7989L24.5647 55.9747L24.5684 55.9953L24.5729 56.0158L25.5491 55.7989ZM25.9721 57.8199L25.9376 58.8193L27.185 58.8623L26.955 57.6356L25.9721 57.8199ZM24.6091 57.7729L23.6469 57.5005L23.2994 58.7283L24.5746 58.7723L24.6091 57.7729ZM25.6901 53.9189L24.735 53.6225L24.7303 53.6376L24.7261 53.6529L25.6901 53.9189ZM26.3481 51.8509L27.2968 52.1671L27.2998 52.1581L27.3026 52.1491L26.3481 51.8509ZM26.7711 50.5819L25.8422 50.2115L25.8365 50.2257L25.8313 50.2401L26.7711 50.5819ZM32.6931 35.7299V34.7299H32.0153L31.7642 35.3595L32.6931 35.7299ZM37.2521 35.7299L38.185 35.3697L37.938 34.7299H37.2521V35.7299ZM42.9861 50.5819L42.0532 50.942L42.058 50.9543L42.063 50.9665L42.9861 50.5819ZM43.7851 52.8379L42.8251 53.1179L42.8322 53.1423L42.8406 53.1664L43.7851 52.8379ZM44.4431 55.0469L43.4729 55.2894L43.4755 55.2993L44.4431 55.0469ZM45.0541 57.3499L45.3141 58.3155L46.2797 58.0555L46.0197 57.0899L45.0541 57.3499ZM43.8321 57.6789L42.8488 57.4968L42.5599 59.057L44.0921 58.6445L43.8321 57.6789ZM44.1611 55.7049L43.1782 55.5206L43.1734 55.5465L43.1699 55.5727L44.1611 55.7049ZM44.3961 54.4829L45.3767 54.679L45.3767 54.679L44.3961 54.4829ZM44.5841 53.5899L45.5603 53.8068L45.5626 53.7964L45.5647 53.786L44.5841 53.5899ZM44.8661 52.4149L43.9174 52.0986L43.9077 52.1277L43.8999 52.1572L44.8661 52.4149ZM45.4771 50.4879L46.4329 50.782L46.4334 50.7803L45.4771 50.4879ZM51.7281 30.0429V29.0429H50.9881L50.7718 29.7505L51.7281 30.0429ZM57.1801 30.0429L58.1329 30.3464L58.5482 29.0429H57.1801V30.0429ZM46.6991 62.9429V63.9429H47.43L47.6519 63.2464L46.6991 62.9429ZM43.1741 62.9429L42.2529 63.332L42.5109 63.9429H43.1741V62.9429ZM34.4791 42.3569L34.8852 41.4431L32.5736 40.4157L33.5579 42.746L34.4791 42.3569ZM34.9021 42.5449L35.8273 42.9243L36.1959 42.0256L35.3082 41.6311L34.9021 42.5449ZM26.5361 62.9429V63.9429H27.2068L27.4613 63.3223L26.5361 62.9429ZM24.0579 62.6393L13.5769 29.7393L11.6713 30.3464L22.1523 63.2464L24.0579 62.6393ZM12.6241 31.0429H18.0291V29.0429H12.6241V31.0429ZM17.0735 30.3374L23.4185 50.9234L25.3297 50.3343L18.9847 29.7483L17.0735 30.3374ZM23.4343 50.9706C23.6634 51.6007 23.8706 52.3644 24.0515 53.269L26.0127 52.8768C25.8176 51.9014 25.5861 51.0357 25.3139 50.2871L23.4343 50.9706ZM24.0515 53.269C24.2383 54.2027 24.4093 55.1046 24.5647 55.9747L26.5335 55.6231C26.3756 54.7385 26.2019 53.823 26.0127 52.8768L24.0515 53.269ZM24.5729 56.0158C24.7599 56.8573 24.8982 57.5187 24.9892 58.0042L26.955 57.6356C26.858 57.1184 26.7143 56.4324 26.5253 55.5819L24.5729 56.0158ZM26.0066 56.8205L24.6436 56.7735L24.5746 58.7723L25.9376 58.8193L26.0066 56.8205ZM25.5713 58.0452C26.0415 56.3838 26.4025 55.0967 26.6541 54.1848L24.7261 53.6529C24.4763 54.5584 24.1167 55.8406 23.6469 57.5005L25.5713 58.0452ZM26.6452 54.2153C26.9266 53.3084 27.1435 52.627 27.2968 52.1671L25.3994 51.5346C25.2394 52.0147 25.0176 52.712 24.735 53.6225L26.6452 54.2153ZM27.3026 52.1491C27.4564 51.6568 27.5925 51.2492 27.7109 50.9236L25.8313 50.2401C25.699 50.6038 25.5531 51.0423 25.3936 51.5526L27.3026 52.1491ZM27.7 50.9522L33.622 36.1002L31.7642 35.3595L25.8422 50.2115L27.7 50.9522ZM32.6931 36.7299H37.2521V34.7299H32.6931V36.7299ZM36.3192 36.09L42.0532 50.942L43.919 50.2217L38.185 35.3697L36.3192 36.09ZM42.063 50.9665C42.3627 51.6857 42.6165 52.4028 42.8251 53.1179L44.7451 52.5579C44.515 51.769 44.2362 50.9821 43.9092 50.1973L42.063 50.9665ZM42.8406 53.1664C43.0813 53.8583 43.2921 54.566 43.473 55.2894L45.4132 54.8043C45.2181 54.0238 44.9902 53.2587 44.7296 52.5093L42.8406 53.1664ZM43.4755 55.2993C43.6642 56.0228 43.8686 56.793 44.0885 57.6098L46.0197 57.0899C45.801 56.2774 45.598 55.5123 45.4107 54.7944L43.4755 55.2993ZM44.7941 56.3843L43.5721 56.7133L44.0921 58.6445L45.3141 58.3155L44.7941 56.3843ZM44.8154 57.861C44.9731 57.0094 45.0863 56.332 45.1523 55.837L43.1699 55.5727C43.1105 56.0177 43.0044 56.6564 42.8488 57.4968L44.8154 57.861ZM45.144 55.8892C45.2376 55.3898 45.3151 54.9868 45.3767 54.679L43.4155 54.2868C43.3517 54.6056 43.2726 55.0173 43.1782 55.5206L45.144 55.8892ZM45.3767 54.679C45.4381 54.3719 45.4993 54.0812 45.5603 53.8068L43.6079 53.3729C43.5436 53.6625 43.4794 53.9672 43.4155 54.2868L45.3767 54.679ZM45.5647 53.786C45.6217 53.501 45.7099 53.1315 45.8323 52.6725L43.8999 52.1572C43.7716 52.6383 43.6718 53.0521 43.6035 53.3938L45.5647 53.786ZM45.8148 52.7311C45.975 52.2504 46.1813 51.5996 46.4329 50.782L44.5213 50.1938C44.2716 51.0055 44.0705 51.6394 43.9174 52.0986L45.8148 52.7311ZM46.4334 50.7803L52.6844 30.3353L50.7718 29.7505L44.5208 50.1955L46.4334 50.7803ZM51.7281 31.0429H57.1801V29.0429H51.7281V31.0429ZM56.2273 29.7393L45.7463 62.6393L47.6519 63.2464L58.1329 30.3464L56.2273 29.7393ZM46.6991 61.9429H43.1741V63.9429H46.6991V61.9429ZM44.0953 62.5538L35.4003 41.9678L33.5579 42.746L42.2529 63.332L44.0953 62.5538ZM34.073 43.2707L34.496 43.4587L35.3082 41.6311L34.8852 41.4431L34.073 43.2707ZM33.9769 42.1654L25.6109 62.5634L27.4613 63.3223L35.8273 42.9243L33.9769 42.1654ZM26.5361 61.9429H23.1051V63.9429H26.5361V61.9429Z" fill="#2A0153" mask="url(#path-18-outside-1_4893_954)"/>
    <defs>
        <linearGradient id="paint0_linear_4893_954" x1="47" y1="1" x2="47" y2="93" gradientUnits="userSpaceOnUse">
            <stop stop-color="#FEA800" stop-opacity="0.5"/>
            <stop offset="1" stop-color="#2A0153" stop-opacity="0.5"/>
        </linearGradient>
    </defs>
</svg>
