<svg width="970" height="1649" viewBox="0 0 970 1649" fill="none" xmlns="http://www.w3.org/2000/svg">
    <g filter="url(#filter0_f_4893_774)">
        <path d="M302.054 1170.41C326.07 1176.65 351.622 1182.67 376.643 1184.98C382.949 1199.39 386.917 1211.95 399.068 1223.71C414.316 1238.48 443.847 1245.23 464.553 1248.02C495.535 1252.18 533.068 1243.71 544.105 1210.68C560.847 1160.58 510.865 1135.1 496.568 1092.91C476.651 1034.14 539.229 972.065 558.415 920.542C575.298 875.201 576.517 817.543 543.135 778.937C530.258 764.045 516.491 752.421 496.326 749.818C472.35 746.722 446.547 744.414 423.08 739.25C398.831 733.914 376.861 728.55 358.807 711.07C345.105 697.803 336.028 674.935 331.522 656.941C318.864 606.383 317.386 554.808 311.877 503.242C309.605 481.977 303.754 455.204 290.655 437.488C279.506 422.409 255.127 403.23 235.841 400.384C216.553 397.538 195.551 411.151 179.573 419.641C162.559 428.681 146.4 437.826 133.006 451.696C101.928 483.876 88.0896 528.935 85.2264 572.283C82.7837 609.265 85.2848 646.197 92.5025 682.538C98.3196 711.826 109.792 740.464 117.484 769.426C124.114 794.392 130.78 820.553 126.215 846.334C122.31 868.389 110.467 886.35 97.8383 904.691C78.7432 932.424 50.119 986.376 63.3981 1020.82C73.2996 1046.5 94.9849 1066.19 115.301 1084.22C138.771 1105.05 161.692 1121.86 190.608 1134.95C226.672 1151.27 263.762 1160.44 302.054 1170.41Z" fill="#FEA800" fill-opacity="0.4"/>
    </g>
    <defs>
        <filter id="filter0_f_4893_774" x="-340" y="0" width="1310" height="1649" filterUnits="userSpaceOnUse" color-interpolation-filters="sRGB">
            <feFlood flood-opacity="0" result="BackgroundImageFix"/>
            <feBlend mode="normal" in="SourceGraphic" in2="BackgroundImageFix" result="shape"/>
            <feGaussianBlur stdDeviation="200" result="effect1_foregroundBlur_4893_774"/>
        </filter>
    </defs>
</svg>
