<svg width="1611" height="1216" viewBox="0 0 1611 1216" fill="none" xmlns="http://www.w3.org/2000/svg">
    <g filter="url(#filter0_f_4893_773)">
        <path d="M693.44 1144.57C697.877 1143.55 749.221 1125.17 747.958 1123.91C753.041 1115.43 761.215 1115.76 767.92 1107.93C773.01 1101.99 784.392 1105.44 790.222 1106.42C799.836 1108.02 810.33 1103.84 820.372 1104.07C829.195 1104.28 837.816 1106.55 847.08 1106.55C902.258 1106.55 957.027 1098.95 1012.15 1096.5C1055.97 1094.55 1097.36 1073.97 1135.09 1053.39C1151.84 1044.24 1164.38 1032.05 1178.86 1020.06C1202.39 1000.58 1225.23 984.194 1251.83 968.823C1317.84 930.683 1386.21 883.185 1416.48 809.744C1431.66 772.931 1437.41 716.635 1415.79 681.103C1393.45 644.376 1336.34 633.564 1297.12 629.868C1240.36 624.518 1183.21 635.087 1126.55 628.904C1070.74 622.813 1032.25 598.572 996.039 557.008C965.726 522.211 935.506 488.85 884.526 503.569C822.045 521.608 787.529 576.198 767.782 634.413C747.438 694.39 746.704 753.433 747.82 815.942C748.442 850.788 751.141 886.417 732.814 917.587C713.762 949.99 667.23 958.897 633.141 964.829C598.319 970.887 562.276 973.653 531.954 994.027C465.417 1038.74 514.015 1121.26 575.595 1140.71C610.861 1151.85 657.559 1152.76 693.44 1144.57Z" fill="#FEA800" fill-opacity="0.4"/>
    </g>
    <defs>
        <filter id="filter0_f_4893_773" x="0" y="0" width="1930" height="1650" filterUnits="userSpaceOnUse" color-interpolation-filters="sRGB">
            <feFlood flood-opacity="0" result="BackgroundImageFix"/>
            <feBlend mode="normal" in="SourceGraphic" in2="BackgroundImageFix" result="shape"/>
            <feGaussianBlur stdDeviation="250" result="effect1_foregroundBlur_4893_773"/>
        </filter>
    </defs>
</svg>
