<svg width="702" height="512" viewBox="0 0 702 512" fill="none" xmlns="http://www.w3.org/2000/svg">
    <g clip-path="url(#clip0_4679_498)">
        <path opacity="0.1" d="M605.715 396.058H676.138C679.962 394.138 682.584 390.238 682.584 385.741C682.584 379.921 678.19 375.1 672.471 374.272C672.48 374.084 672.489 373.896 672.489 373.7C672.489 366.891 666.7 361.37 659.56 361.37C658.815 361.37 658.087 361.429 657.368 361.549C654.289 356.352 648.281 352.828 641.378 352.828C633.335 352.828 626.511 357.615 624.117 364.254C623.363 364.109 622.582 364.023 621.793 364.023C614.934 364.023 609.373 369.766 609.373 376.849C609.373 377.643 609.443 378.428 609.575 379.179C604.382 379.503 600.277 383.368 600.277 388.096C600.277 391.569 602.488 394.573 605.715 396.058Z" fill="#FEA800"/>
        <path d="M653.614 289.758C653.614 132.087 522.233 4.2666 360.163 4.2666C198.101 4.2666 66.7207 132.087 66.7207 289.758C66.7207 379.699 109.488 459.913 176.297 512.239H544.038C610.846 459.913 653.614 379.699 653.614 289.758Z" fill="url(#paint0_linear_4679_498)"/>
        <path opacity="0.4" d="M441.768 178.816C441.768 180.574 441.198 181.99 440.496 181.99H368.355C367.653 181.99 367.083 180.565 367.083 178.816C367.083 177.058 367.653 175.642 368.355 175.642H440.496C441.198 175.642 441.768 177.067 441.768 178.816Z" fill="#FEA800"/>
        <path opacity="0.4" d="M585.112 150.178C585.112 151.936 583.446 153.352 581.393 153.352H370.802C368.749 153.352 367.083 151.927 367.083 150.178C367.083 148.42 368.749 147.004 370.802 147.004H581.393C583.446 147.004 585.112 148.429 585.112 150.178ZM511.445 163.678C511.445 165.436 510.339 166.852 508.98 166.852H369.539C368.179 166.852 367.074 165.427 367.074 163.678C367.074 161.92 368.179 160.503 369.539 160.503H508.98C510.339 160.503 511.445 161.92 511.445 163.678Z" fill="#FEA800"/>
        <path fill-rule="evenodd" clip-rule="evenodd" d="M263.761 497.041V496.307H312.063L263.761 497.041ZM248.684 497.041L207.127 496.307H248.684V497.041Z" fill="#FEA800"/>
        <path d="M564.088 433.118C564.088 433.118 562.194 421.453 562.378 418.944C562.562 416.435 563.273 403.183 563.273 403.183L565.106 401.596C565.106 401.596 563.299 416.358 563.527 420.719C563.746 425.071 564.088 433.118 564.088 433.118Z" fill="url(#paint1_linear_4679_498)"/>
        <path fill-rule="evenodd" clip-rule="evenodd" d="M486.509 317.261H496.666V512.026H486.509V317.261Z" fill="#6F12CC"/>
        <path fill-rule="evenodd" clip-rule="evenodd" d="M481.519 317.261H491.675V512.026H481.519V317.261Z" fill="black"/>
        <path fill-rule="evenodd" clip-rule="evenodd" d="M519.286 317.261H529.399V512.026H519.286V317.261Z" fill="#6F12CC"/>
        <path fill-rule="evenodd" clip-rule="evenodd" d="M514.296 317.261H524.409V512.026H514.296V317.261Z" fill="black"/>
        <path fill-rule="evenodd" clip-rule="evenodd" d="M271.488 317.261H281.645V512.026H271.488V317.261Z" fill="#6012AE"/>
        <path fill-rule="evenodd" clip-rule="evenodd" d="M266.507 317.261H276.664V512.026H266.507V317.261Z" fill="black"/>
        <path fill-rule="evenodd" clip-rule="evenodd" d="M304.266 317.261H314.379V512.026H304.266V317.261Z" fill="#6F12CC"/>
        <path fill-rule="evenodd" clip-rule="evenodd" d="M299.283 317.261H309.396V512.026H299.283V317.261Z" fill="black"/>
        <path fill-rule="evenodd" clip-rule="evenodd" d="M229.353 309.18H549.011V328.474H229.353V309.18Z" fill="black"/>
        <path fill-rule="evenodd" clip-rule="evenodd" d="M372.092 239.761L470.467 233.02L472.037 236.373L459.135 304.853H454.6L357.365 310.656L372.092 239.761Z" fill="url(#paint2_linear_4679_498)"/>
        <path fill-rule="evenodd" clip-rule="evenodd" d="M368.653 233.02H470.116L455.389 303.957H353.918L368.653 233.02Z" fill="black"/>
        <path fill-rule="evenodd" clip-rule="evenodd" d="M427.84 303.829H455.688V309.171H427.84V303.829Z" fill="url(#paint3_linear_4679_498)"/>
        <path fill-rule="evenodd" clip-rule="evenodd" d="M334.043 303.829H427.84V309.171H334.043V303.829Z" fill="#5F1CA3"/>
        <path fill-rule="evenodd" clip-rule="evenodd" d="M372.091 237.133L359.058 299.802H451.898L464.932 237.133H372.091Z" fill="#402759"/>
        <path fill-rule="evenodd" clip-rule="evenodd" d="M389.178 309.18C392.318 309.555 398.94 308.583 403.65 305.621C408.316 302.652 412.017 299.836 412.017 299.836C412.017 299.836 422.183 301.124 422.832 298.863C423.113 295.842 409.658 292.267 407.79 292.053C405.869 291.84 390.099 293.999 388.485 295.569C386.871 297.131 389.178 309.18 389.178 309.18ZM336.613 300.57C339.753 300.954 346.375 299.981 351.042 297.011C355.708 294.042 360.155 289.715 360.155 289.715C360.155 289.715 370.311 290.645 370.092 289.715C369.829 288.828 357.102 283.648 355.181 283.443C353.304 283.23 337.49 285.397 335.876 286.968C334.263 288.521 336.613 300.57 336.613 300.57Z" fill="#FEA800"/>
        <path fill-rule="evenodd" clip-rule="evenodd" d="M355.05 288.615C356.049 289.843 362.417 294.468 361.198 296.243C359.979 298.069 357.058 298.829 353.874 296.585C350.69 294.34 348.691 291.704 349.559 290.816C350.436 289.929 355.05 288.615 355.05 288.615Z" fill="#FEA800"/>
        <path fill-rule="evenodd" clip-rule="evenodd" d="M219.546 227.507C209.872 231.322 212.179 249.472 216.582 262.494C220.941 275.516 266.138 306.253 279.522 309.649C292.907 313.003 344.814 297.225 344.814 297.225C348.34 290.227 345.296 282.803 338.884 284.416C338.884 284.416 288.285 292.13 280.698 283.614C274.593 276.779 229.791 223.48 219.546 227.507Z" fill="url(#paint4_linear_4679_498)"/>
        <path fill-rule="evenodd" clip-rule="evenodd" d="M260.516 203.93C244.693 234.923 212.179 224.58 204.513 194.944C196.839 165.342 194.839 139.776 221.511 135.279C250.491 130.398 276.383 172.928 260.516 203.93Z" fill="url(#paint5_linear_4679_498)"/>
        <path fill-rule="evenodd" clip-rule="evenodd" d="M211.004 204.612C214.012 213.811 213.091 238.49 213.091 238.49C213.091 238.49 255.894 250.615 254.587 245.018C249.359 222.327 246.702 202.487 241.904 198.332C237.94 194.935 228.177 206.344 211.004 204.612Z" fill="#FEA800"/>
        <path fill-rule="evenodd" clip-rule="evenodd" d="M298.214 483.968C298.214 483.968 307.406 494.78 319.308 499.618C331.21 504.457 336.569 506.53 334.649 509.5C332.728 512.469 317.475 511.07 305.967 511.454C294.504 511.838 286.75 512.683 286.355 509.124C285.961 505.609 287.794 486.059 287.794 486.059L298.214 483.968Z" fill="black"/>
        <path fill-rule="evenodd" clip-rule="evenodd" d="M281.479 399.838C281.917 411.964 286.145 502.903 286.145 502.903C289.1 506.223 308.642 499.405 310.011 494.788C310.011 494.788 318.396 393.557 315.124 393.088C311.905 392.67 281.479 399.838 281.479 399.838Z" fill="url(#paint6_linear_4679_498)"/>
        <path fill-rule="evenodd" clip-rule="evenodd" d="M398.642 484.395C398.642 484.395 407.842 495.206 419.692 500.088C431.594 504.926 436.953 506.957 435.032 509.969C433.111 512.939 417.859 511.497 406.395 511.881C394.888 512.265 387.134 513.109 386.739 509.594C386.345 506.035 388.178 486.485 388.178 486.485L398.642 484.395Z" fill="black"/>
        <path fill-rule="evenodd" clip-rule="evenodd" d="M218.064 363.238C216.67 372.693 201.891 387.499 219.897 402.295C237.895 417.092 353.795 404.582 355.278 406.579C356.76 408.533 385.441 504.473 385.441 504.473C385.441 504.473 410.254 503.714 408.956 493.832C399.378 468.096 400.957 385.928 381.564 376.934C362.198 367.949 218.064 363.238 218.064 363.238Z" fill="url(#paint7_linear_4679_498)"/>
        <path fill-rule="evenodd" clip-rule="evenodd" d="M265.568 229.965C248.964 225.681 199.338 222.225 192.69 236.032C177.253 268.092 189.541 391.279 211.03 393.31C224.844 394.624 293.415 392.585 295.722 368.375C298.739 336.529 268.444 290.475 265.568 229.965Z" fill="url(#paint8_linear_4679_498)"/>
        <path fill-rule="evenodd" clip-rule="evenodd" d="M191.365 330.488H208.188V411.733H191.365V330.488Z" fill="#FEA800"/>
        <path fill-rule="evenodd" clip-rule="evenodd" d="M187.787 329.83H204.61V411.076H187.787V329.83Z" fill="black"/>
        <path fill-rule="evenodd" clip-rule="evenodd" d="M265.568 229.965C255.894 233.779 258.157 251.972 262.56 264.994C266.963 277.973 312.16 308.71 325.544 312.107C338.929 315.46 392.449 308.89 392.449 308.89C395.94 301.892 392.932 294.468 386.476 296.081C386.476 296.081 334.263 294.596 326.676 286.071C320.624 279.236 275.769 225.937 265.568 229.965Z" fill="url(#paint9_linear_4679_498)"/>
        <path fill-rule="evenodd" clip-rule="evenodd" d="M248.745 164.83C245.649 161.016 254.104 176.956 251.534 183.654C251.578 176.486 233.711 167.834 240.597 187.298C241.43 189.67 242.465 199.817 242.465 199.817C242.289 203.998 220.309 216.627 213.056 211.763C206.478 208.034 196.058 193.024 189.392 176.188C182.682 159.352 194.444 151.125 194.444 151.125C194.444 151.125 192.83 146.842 198.145 138.786C202.285 132.429 264.006 119.834 260.691 147.558C259.989 153.293 253.806 158.259 248.745 164.83Z" fill="black"/>
        <path fill-rule="evenodd" clip-rule="evenodd" d="M176.192 264.277H240.211C244.842 264.277 248.666 269.278 248.666 275.388V321.86C248.666 327.97 244.842 332.971 240.211 332.971H176.192C171.525 332.971 167.71 327.97 167.71 321.86V275.388C167.71 269.278 171.525 264.277 176.192 264.277Z" fill="#FEA800"/>
        <path fill-rule="evenodd" clip-rule="evenodd" d="M169.902 264.414H233.922C238.553 264.414 242.377 269.414 242.377 275.524V321.997C242.377 328.107 238.553 333.107 233.922 333.107H169.902C165.236 333.107 161.421 328.107 161.421 321.997V275.524C161.412 269.414 165.236 264.414 169.902 264.414ZM248.683 415.275H263.761V498.091H248.683V415.275Z" fill="black"/>
        <path fill-rule="evenodd" clip-rule="evenodd" d="M202.435 496.307H311.967V502.118H202.435V496.307Z" fill="black"/>
        <path fill-rule="evenodd" clip-rule="evenodd" d="M309.66 511.36C314.107 511.36 317.676 507.878 317.676 503.603C317.676 499.277 314.107 495.804 309.66 495.804C305.257 495.804 301.687 499.277 301.687 503.603C301.678 507.887 305.257 511.36 309.66 511.36ZM255.253 511.189C259.7 511.189 263.27 507.708 263.27 503.432C263.27 499.106 259.691 495.633 255.253 495.633C250.85 495.633 247.28 499.106 247.28 503.432C247.272 507.708 250.85 511.189 255.253 511.189ZM202.785 511.36C207.188 511.36 210.802 507.878 210.802 503.603C210.802 499.277 207.188 495.804 202.785 495.804C198.382 495.804 194.769 499.277 194.769 503.603C194.769 507.887 198.382 511.36 202.785 511.36ZM185.506 402.295H326.895C332.254 402.295 336.613 406.536 336.613 411.708C336.613 416.922 332.254 421.163 326.895 421.163H185.506C180.191 421.163 175.832 416.922 175.832 411.708C175.832 406.536 180.191 402.295 185.506 402.295Z" fill="black"/>
        <path fill-rule="evenodd" clip-rule="evenodd" d="M209.618 227.575C209.837 224.862 211.811 217.224 211.811 217.224C211.811 217.224 243.886 215.1 251.517 218.581C252.71 219.127 260.121 229.751 260.121 229.751C239.896 226.184 222.59 226.014 209.618 227.575Z" fill="#FAE9BC"/>
        <path fill-rule="evenodd" clip-rule="evenodd" d="M372.092 237.133H464.932L464.345 239.94L371.478 240.111L372.092 237.133ZM451.425 246.895C451.425 247.322 451.074 247.663 450.636 247.663H377.231C376.793 247.663 376.442 247.322 376.442 246.895C376.442 246.468 376.793 246.127 377.231 246.127H450.636C451.074 246.127 451.425 246.468 451.425 246.895ZM437.006 251.255C437.006 251.682 436.716 252.023 436.357 252.023H376.179C375.819 252.023 375.53 251.682 375.53 251.255C375.53 250.829 375.819 250.487 376.179 250.487H436.357C436.716 250.487 437.006 250.837 437.006 251.255ZM436.111 256.649C436.111 257.075 435.822 257.417 435.462 257.417H375.284C374.925 257.417 374.635 257.075 374.635 256.649C374.635 256.222 374.925 255.881 375.284 255.881H435.462C435.822 255.881 436.111 256.222 436.111 256.649ZM448.434 261.367C448.434 261.794 448.083 262.135 447.645 262.135H374.161C373.723 262.135 373.372 261.794 373.372 261.367C373.372 260.941 373.723 260.599 374.161 260.599H447.645C448.083 260.599 448.434 260.949 448.434 261.367ZM445.715 272.606C445.715 273.033 445.364 273.374 444.926 273.374H371.442C371.004 273.374 370.653 273.033 370.653 272.606C370.653 272.179 371.004 271.838 371.442 271.838H444.926C445.356 271.838 445.715 272.179 445.715 272.606ZM419.113 266.701C419.113 267.127 418.894 267.469 418.622 267.469H372.881C372.609 267.469 372.39 267.127 372.39 266.701C372.39 266.274 372.609 265.933 372.881 265.933H418.622C418.894 265.933 419.113 266.274 419.113 266.701ZM403.825 277.504C403.825 277.931 403.667 278.272 403.474 278.272H370.451C370.258 278.272 370.101 277.931 370.101 277.504C370.101 277.077 370.258 276.736 370.451 276.736H403.465C403.667 276.736 403.825 277.077 403.825 277.504ZM429.033 283.426C429.033 283.853 428.752 284.194 428.401 284.194H369.285C368.934 284.194 368.653 283.853 368.653 283.426C368.653 282.999 368.943 282.658 369.285 282.658H428.401C428.743 282.658 429.033 282.999 429.033 283.426Z" fill="#571E91"/>
        <path d="M341.139 92.5269C341.139 93.1498 340.621 93.6533 339.981 93.6533C339.341 93.6533 338.823 93.1498 338.823 92.5269C338.823 91.904 339.341 91.4005 339.981 91.4005C340.621 91.4005 341.139 91.904 341.139 92.5269ZM424.2 162.372C424.2 162.995 423.682 163.499 423.042 163.499C422.402 163.499 421.876 162.995 421.876 162.372C421.876 161.749 422.393 161.246 423.042 161.246C423.691 161.246 424.2 161.741 424.2 162.372ZM302.845 101.606C302.845 102.229 302.327 102.733 301.687 102.733C301.046 102.733 300.529 102.229 300.529 101.606C300.529 100.983 301.046 100.471 301.687 100.471C302.327 100.48 302.845 100.983 302.845 101.606ZM209.346 100.48C209.346 101.103 208.828 101.606 208.188 101.606C207.548 101.606 207.03 101.103 207.03 100.48C207.03 99.857 207.548 99.3536 208.188 99.3536C208.828 99.345 209.346 99.857 209.346 100.48ZM538.573 234.889C538.573 235.511 538.056 236.015 537.416 236.015C536.775 236.015 536.249 235.511 536.249 234.889C536.249 234.266 536.767 233.762 537.416 233.762C538.065 233.762 538.573 234.266 538.573 234.889ZM542.389 159.582L543.626 162.022L546.388 162.406L544.389 164.309L544.862 166.989L542.389 165.726L539.915 166.989L540.38 164.309L538.381 162.406L541.152 162.022L542.389 159.582ZM255.85 60.5696L257.393 63.616L260.849 64.1024L258.349 66.4746L258.937 69.8282L255.85 68.241L252.753 69.8282L253.341 66.4746L250.841 64.1024L254.297 63.616L255.85 60.5696ZM602.26 209.749L603.812 212.796L607.268 213.282L604.768 215.654L605.356 219.008L602.26 217.421L599.172 219.008L599.76 215.654L597.26 213.282L600.716 212.796L602.26 209.749Z" fill="#FEA800"/>
        <path d="M146.107 204.681C148.369 204.681 150.203 202.896 150.203 200.696C150.203 198.495 148.369 196.71 146.107 196.71C143.845 196.71 142.011 198.495 142.011 200.696C142.011 202.896 143.845 204.681 146.107 204.681Z" fill="#FEA800"/>
        <path d="M456.916 116.07C472.791 131.584 498.578 131.652 514.532 116.216C530.478 100.779 530.548 75.6822 514.681 60.1686C498.815 44.655 473.019 44.5867 457.074 60.0235C441.119 75.4603 441.049 100.557 456.916 116.07Z" fill="#FEA800"/>
        <path d="M73.168 302.131L359.058 299.802L365.391 300.032L451.899 299.802L464.933 237.133L117.084 62.7371" fill="url(#paint10_linear_4679_498)"/>
        <path opacity="0.2" d="M438.224 98.9439C434.953 98.9439 431.892 99.8143 429.278 101.333C428.655 92.4586 421.06 85.4527 411.789 85.4527C409.526 85.4527 407.368 85.8709 405.386 86.6303C402.86 78.4042 395.027 72.4053 385.748 72.4053C374.433 72.4053 365.25 81.3311 365.25 92.3477C365.25 92.6293 365.259 92.9109 365.276 93.1839H365.25C353.935 93.1839 344.752 102.11 344.752 113.126C344.752 124.134 353.926 133.069 365.25 133.069C365.96 133.069 366.653 133.035 367.346 132.966H436.312C436.944 133.035 437.575 133.069 438.224 133.069C447.908 133.069 455.758 125.431 455.758 116.011C455.758 106.581 447.908 98.9439 438.224 98.9439Z" fill="url(#paint11_linear_4679_498)"/>
    </g>
    <defs>
        <linearGradient id="paint0_linear_4679_498" x1="360.167" y1="-1.14012" x2="360.167" y2="512.775" gradientUnits="userSpaceOnUse">
            <stop stop-color="#5D00BB"/>
            <stop offset="1"/>
        </linearGradient>
        <linearGradient id="paint1_linear_4679_498" x1="562.359" y1="417.352" x2="565.099" y2="417.352" gradientUnits="userSpaceOnUse">
            <stop offset="0.041" stop-color="#300060"/>
            <stop offset="1" stop-color="#4F0996"/>
        </linearGradient>
        <linearGradient id="paint2_linear_4679_498" x1="357.363" y1="271.839" x2="472.035" y2="271.839" gradientUnits="userSpaceOnUse">
            <stop stop-color="#FFE6A1"/>
            <stop offset="0.433" stop-color="white"/>
        </linearGradient>
        <linearGradient id="paint3_linear_4679_498" x1="427.841" y1="306.505" x2="455.69" y2="306.505" gradientUnits="userSpaceOnUse">
            <stop stop-color="#FFE6A1"/>
            <stop offset="0.433" stop-color="white"/>
        </linearGradient>
        <linearGradient id="paint4_linear_4679_498" x1="212.781" y1="268.699" x2="346.299" y2="268.699" gradientUnits="userSpaceOnUse">
            <stop stop-color="#2A0153"/>
            <stop offset="0.23" stop-color="#6A13C2"/>
            <stop offset="0.348" stop-color="#6E18C5"/>
            <stop offset="0.493" stop-color="#7927CC"/>
            <stop offset="0.652" stop-color="#7B1FD8"/>
            <stop offset="0.822" stop-color="#7D12E9"/>
            <stop offset="0.998" stop-color="#7F00FF"/>
            <stop offset="1" stop-color="#7F00FF"/>
        </linearGradient>
        <linearGradient id="paint5_linear_4679_498" x1="228.216" y1="167.39" x2="250.766" y2="228.928" gradientUnits="userSpaceOnUse">
            <stop stop-color="#FFE6A1"/>
            <stop offset="0.433" stop-color="white"/>
        </linearGradient>
        <linearGradient id="paint6_linear_4679_498" x1="298.941" y1="405.231" x2="302.803" y2="496.537" gradientUnits="userSpaceOnUse">
            <stop offset="0.041" stop-color="#110022"/>
            <stop offset="1" stop-color="#4F0996"/>
        </linearGradient>
        <linearGradient id="paint7_linear_4679_498" x1="293.078" y1="380.79" x2="398.519" y2="504.34" gradientUnits="userSpaceOnUse">
            <stop offset="0.041" stop-color="#1D003B"/>
            <stop offset="1" stop-color="#4F0996"/>
        </linearGradient>
        <linearGradient id="paint8_linear_4679_498" x1="185.781" y1="309.897" x2="295.942" y2="309.897" gradientUnits="userSpaceOnUse">
            <stop stop-color="#9933FF"/>
            <stop offset="0.159" stop-color="#9B37FF"/>
            <stop offset="0.353" stop-color="#A143FF"/>
            <stop offset="0.568" stop-color="#A449FF"/>
            <stop offset="0.794" stop-color="#9226FF"/>
            <stop offset="1" stop-color="#7F00FF"/>
        </linearGradient>
        <linearGradient id="paint9_linear_4679_498" x1="263.108" y1="259.459" x2="389.782" y2="305.3" gradientUnits="userSpaceOnUse">
            <stop stop-color="#9933FF"/>
            <stop offset="0.097" stop-color="#9B37FF"/>
            <stop offset="0.216" stop-color="#A143FF"/>
            <stop offset="0.346" stop-color="#A449FF"/>
            <stop offset="0.484" stop-color="#9226FF"/>
            <stop offset="0.61" stop-color="#7F00FF"/>
        </linearGradient>
        <linearGradient id="paint10_linear_4679_498" x1="98.9231" y1="183.155" x2="549.288" y2="273.135" gradientUnits="userSpaceOnUse">
            <stop offset="0.004" stop-color="#9933FF" stop-opacity="0"/>
            <stop offset="0.092" stop-color="#A851FF" stop-opacity="0.088"/>
            <stop offset="0.263" stop-color="#FFD666" stop-opacity="0.26"/>
            <stop offset="0.43" stop-color="#FFD45E" stop-opacity="0.428"/>
            <stop offset="0.591" stop-color="#FFD257" stop-opacity="0.589"/>
            <stop offset="0.743" stop-color="#FFD153" stop-opacity="0.742"/>
            <stop offset="0.883" stop-color="#FFD050" stop-opacity="0.883"/>
            <stop offset="1" stop-color="#FFD04F"/>
        </linearGradient>
        <linearGradient id="paint11_linear_4679_498" x1="344.755" y1="102.739" x2="455.76" y2="102.739" gradientUnits="userSpaceOnUse">
            <stop stop-color="#FFE6A1"/>
            <stop offset="0.089" stop-color="#FFE9AC"/>
            <stop offset="0.499" stop-color="#FFF5D9"/>
            <stop offset="0.816" stop-color="#FFFCF5"/>
            <stop offset="1" stop-color="white"/>
        </linearGradient>
        <clipPath id="clip0_4679_498">
            <rect width="701.679" height="512" fill="white"/>
        </clipPath>
    </defs>
</svg>
