<svg width="174" height="173" viewBox="0 0 174 173" fill="none" xmlns="http://www.w3.org/2000/svg">
    <g filter="url(#filter0_d_4679_486)">
        <ellipse cx="87" cy="86.5" rx="47" ry="46.5" fill="url(#paint0_linear_4679_486)" shape-rendering="crispEdges"/>
    </g>
    <path d="M110.773 105.289C116.498 105.289 121.149 100.696 121.149 95.0179C121.149 89.3403 116.498 84.7468 110.773 84.7468C105.047 84.7468 100.396 89.3403 100.396 95.0179C100.396 100.696 105.047 105.289 110.773 105.289Z" fill="white" stroke="#2A0153"/>
    <rect x="109.891" y="89.4346" width="1.93996" height="2.96623" fill="#2A0153"/>
    <rect width="1.92932" height="2.98276" transform="matrix(0.69685 0.717178 -0.724625 0.689185 108.349 96.2395)" fill="#2A0153"/>
    <rect width="1.92932" height="2.98276" transform="matrix(0.69685 0.717178 -0.724625 0.689185 114.169 90.4814)" fill="#2A0153"/>
    <rect x="109.891" y="97.6353" width="1.93996" height="2.96623" fill="#2A0153"/>
    <rect width="1.91933" height="2.99811" transform="matrix(0.0161348 0.999869 -0.999876 0.0157935 108.304 94.1455)" fill="#2A0153"/>
    <rect width="1.91933" height="2.99811" transform="matrix(0.0161348 0.999869 -0.999876 0.0157935 116.416 94.1455)" fill="#2A0153"/>
    <rect width="1.92922" height="2.98291" transform="matrix(-0.697393 0.716729 -0.7241 -0.689654 109.692 92.5386)" fill="#2A0153"/>
    <path d="M118.825 76.8238C118.825 81.1458 115.283 84.6586 110.901 84.6586C106.519 84.6586 102.977 81.1458 102.977 76.8238C102.977 72.5018 106.519 68.989 110.901 68.989C115.283 68.989 118.825 72.5018 118.825 76.8238Z" fill="white" stroke="#2A0153"/>
    <rect x="110.149" y="72.061" width="1.65479" height="2.5302" fill="#2A0153"/>
    <rect width="1.64571" height="2.5443" transform="matrix(0.69685 0.717178 -0.724625 0.689185 108.834 77.8655)" fill="#2A0153"/>
    <rect width="1.64571" height="2.54431" transform="matrix(0.69685 0.717178 -0.724625 0.689185 113.798 72.9539)" fill="#2A0153"/>
    <rect x="110.149" y="79.0562" width="1.65479" height="2.5302" fill="#2A0153"/>
    <rect width="1.63719" height="2.5574" transform="matrix(0.0161348 0.999869 -0.999876 0.0157935 108.795 76.0796)" fill="#2A0153"/>
    <rect width="1.6372" height="2.5574" transform="matrix(0.0161348 0.999869 -0.999876 0.0157935 115.715 76.0796)" fill="#2A0153"/>
    <rect width="1.64563" height="2.54443" transform="matrix(-0.697393 0.716728 -0.7241 -0.689654 109.979 74.7087)" fill="#2A0153"/>
    <mask id="path-18-outside-1_4679_486" maskUnits="userSpaceOnUse" x="50.4961" y="68.9429" width="49" height="35" fill="black">
        <rect fill="white" x="50.4961" y="68.9429" width="49" height="35"/>
        <path d="M63.1051 102.943L52.6241 70.0429H58.0291L64.3741 90.6289C64.6248 91.3182 64.8441 92.1329 65.0321 93.0729C65.2201 94.0129 65.3924 94.9215 65.5491 95.7989C65.7371 96.6449 65.8781 97.3185 65.9721 97.8199L64.6091 97.7729C65.0791 96.1122 65.4394 94.8275 65.6901 93.9189C65.9721 93.0102 66.1914 92.3209 66.3481 91.8509C66.5048 91.3495 66.6458 90.9265 66.7711 90.5819L72.6931 75.7299H77.2521L82.9861 90.5819C83.2994 91.3339 83.5658 92.0859 83.7851 92.8379C84.0358 93.5585 84.2551 94.2949 84.4431 95.0469C84.6311 95.7675 84.8348 96.5352 85.0541 97.3499L83.8321 97.6789C83.9888 96.8329 84.0984 96.1749 84.1611 95.7049C84.2551 95.2035 84.3334 94.7962 84.3961 94.4829C84.4588 94.1695 84.5214 93.8719 84.5841 93.5899C84.6468 93.2765 84.7408 92.8849 84.8661 92.4149C85.0228 91.9449 85.2264 91.3025 85.4771 90.4879L91.7281 70.0429H97.1801L86.6991 102.943H83.1741L74.4791 82.3569L74.9021 82.5449L66.5361 102.943H63.1051Z"/>
    </mask>
    <path d="M63.1051 102.943L52.6241 70.0429H58.0291L64.3741 90.6289C64.6248 91.3182 64.8441 92.1329 65.0321 93.0729C65.2201 94.0129 65.3924 94.9215 65.5491 95.7989C65.7371 96.6449 65.8781 97.3185 65.9721 97.8199L64.6091 97.7729C65.0791 96.1122 65.4394 94.8275 65.6901 93.9189C65.9721 93.0102 66.1914 92.3209 66.3481 91.8509C66.5048 91.3495 66.6458 90.9265 66.7711 90.5819L72.6931 75.7299H77.2521L82.9861 90.5819C83.2994 91.3339 83.5658 92.0859 83.7851 92.8379C84.0358 93.5585 84.2551 94.2949 84.4431 95.0469C84.6311 95.7675 84.8348 96.5352 85.0541 97.3499L83.8321 97.6789C83.9888 96.8329 84.0984 96.1749 84.1611 95.7049C84.2551 95.2035 84.3334 94.7962 84.3961 94.4829C84.4588 94.1695 84.5214 93.8719 84.5841 93.5899C84.6468 93.2765 84.7408 92.8849 84.8661 92.4149C85.0228 91.9449 85.2264 91.3025 85.4771 90.4879L91.7281 70.0429H97.1801L86.6991 102.943H83.1741L74.4791 82.3569L74.9021 82.5449L66.5361 102.943H63.1051Z" fill="white"/>
    <path d="M63.1051 102.943L62.1523 103.246L62.3741 103.943H63.1051V102.943ZM52.6241 70.0429V69.0429H51.256L51.6713 70.3464L52.6241 70.0429ZM58.0291 70.0429L58.9847 69.7483L58.7673 69.0429H58.0291V70.0429ZM64.3741 90.6289L63.4185 90.9234L63.4258 90.9472L63.4343 90.9706L64.3741 90.6289ZM65.0321 93.0729L66.0127 92.8768L65.0321 93.0729ZM65.5491 95.7989L64.5647 95.9747L64.5684 95.9953L64.5729 96.0158L65.5491 95.7989ZM65.9721 97.8199L65.9376 98.8193L67.185 98.8623L66.955 97.6356L65.9721 97.8199ZM64.6091 97.7729L63.6469 97.5005L63.2994 98.7283L64.5746 98.7723L64.6091 97.7729ZM65.6901 93.9189L64.735 93.6225L64.7303 93.6376L64.7261 93.6529L65.6901 93.9189ZM66.3481 91.8509L67.2968 92.1671L67.2998 92.1581L67.3026 92.1491L66.3481 91.8509ZM66.7711 90.5819L65.8422 90.2115L65.8365 90.2257L65.8313 90.2401L66.7711 90.5819ZM72.6931 75.7299V74.7299H72.0153L71.7642 75.3595L72.6931 75.7299ZM77.2521 75.7299L78.185 75.3697L77.938 74.7299H77.2521V75.7299ZM82.9861 90.5819L82.0532 90.942L82.058 90.9543L82.063 90.9665L82.9861 90.5819ZM83.7851 92.8379L82.8251 93.1179L82.8322 93.1423L82.8406 93.1664L83.7851 92.8379ZM84.4431 95.0469L83.4729 95.2894L83.4755 95.2993L84.4431 95.0469ZM85.0541 97.3499L85.3141 98.3155L86.2797 98.0555L86.0197 97.0899L85.0541 97.3499ZM83.8321 97.6789L82.8488 97.4968L82.5599 99.057L84.0921 98.6445L83.8321 97.6789ZM84.1611 95.7049L83.1782 95.5206L83.1734 95.5465L83.1699 95.5727L84.1611 95.7049ZM84.3961 94.4829L85.3767 94.679L85.3767 94.679L84.3961 94.4829ZM84.5841 93.5899L85.5603 93.8068L85.5626 93.7964L85.5647 93.786L84.5841 93.5899ZM84.8661 92.4149L83.9174 92.0986L83.9077 92.1277L83.8999 92.1572L84.8661 92.4149ZM85.4771 90.4879L86.4329 90.782L86.4334 90.7803L85.4771 90.4879ZM91.7281 70.0429V69.0429H90.9881L90.7718 69.7505L91.7281 70.0429ZM97.1801 70.0429L98.1329 70.3464L98.5482 69.0429H97.1801V70.0429ZM86.6991 102.943V103.943H87.43L87.6519 103.246L86.6991 102.943ZM83.1741 102.943L82.2529 103.332L82.5109 103.943H83.1741V102.943ZM74.4791 82.3569L74.8852 81.4431L72.5736 80.4157L73.5579 82.746L74.4791 82.3569ZM74.9021 82.5449L75.8273 82.9243L76.1959 82.0256L75.3082 81.6311L74.9021 82.5449ZM66.5361 102.943V103.943H67.2068L67.4613 103.322L66.5361 102.943ZM64.0579 102.639L53.5769 69.7393L51.6713 70.3464L62.1523 103.246L64.0579 102.639ZM52.6241 71.0429H58.0291V69.0429H52.6241V71.0429ZM57.0735 70.3374L63.4185 90.9234L65.3297 90.3343L58.9847 69.7483L57.0735 70.3374ZM63.4343 90.9706C63.6634 91.6007 63.8706 92.3644 64.0515 93.269L66.0127 92.8768C65.8176 91.9014 65.5861 91.0357 65.3139 90.2871L63.4343 90.9706ZM64.0515 93.269C64.2383 94.2027 64.4093 95.1046 64.5647 95.9747L66.5335 95.6231C66.3756 94.7385 66.2019 93.823 66.0127 92.8768L64.0515 93.269ZM64.5729 96.0158C64.7599 96.8573 64.8982 97.5187 64.9892 98.0042L66.955 97.6356C66.858 97.1184 66.7143 96.4324 66.5253 95.5819L64.5729 96.0158ZM66.0066 96.8205L64.6436 96.7735L64.5746 98.7723L65.9376 98.8193L66.0066 96.8205ZM65.5713 98.0452C66.0415 96.3838 66.4025 95.0967 66.6541 94.1848L64.7261 93.6529C64.4763 94.5584 64.1167 95.8406 63.6469 97.5005L65.5713 98.0452ZM66.6452 94.2153C66.9266 93.3084 67.1435 92.627 67.2968 92.1671L65.3994 91.5346C65.2394 92.0147 65.0176 92.712 64.735 93.6225L66.6452 94.2153ZM67.3026 92.1491C67.4564 91.6568 67.5925 91.2492 67.7109 90.9236L65.8313 90.2401C65.699 90.6038 65.5531 91.0423 65.3936 91.5526L67.3026 92.1491ZM67.7 90.9522L73.622 76.1002L71.7642 75.3595L65.8422 90.2115L67.7 90.9522ZM72.6931 76.7299H77.2521V74.7299H72.6931V76.7299ZM76.3192 76.09L82.0532 90.942L83.919 90.2217L78.185 75.3697L76.3192 76.09ZM82.063 90.9665C82.3627 91.6857 82.6165 92.4028 82.8251 93.1179L84.7451 92.5579C84.515 91.769 84.2362 90.9821 83.9092 90.1973L82.063 90.9665ZM82.8406 93.1664C83.0813 93.8583 83.2921 94.566 83.473 95.2894L85.4132 94.8043C85.2181 94.0238 84.9902 93.2587 84.7296 92.5093L82.8406 93.1664ZM83.4755 95.2993C83.6642 96.0228 83.8686 96.793 84.0885 97.6098L86.0197 97.0899C85.801 96.2774 85.598 95.5123 85.4107 94.7944L83.4755 95.2993ZM84.7941 96.3843L83.5721 96.7133L84.0921 98.6445L85.3141 98.3155L84.7941 96.3843ZM84.8154 97.861C84.9731 97.0094 85.0863 96.332 85.1523 95.837L83.1699 95.5727C83.1105 96.0177 83.0044 96.6564 82.8488 97.4968L84.8154 97.861ZM85.144 95.8892C85.2376 95.3898 85.3151 94.9868 85.3767 94.679L83.4155 94.2868C83.3517 94.6056 83.2726 95.0173 83.1782 95.5206L85.144 95.8892ZM85.3767 94.679C85.4381 94.3719 85.4993 94.0812 85.5603 93.8068L83.6079 93.3729C83.5436 93.6625 83.4794 93.9672 83.4155 94.2868L85.3767 94.679ZM85.5647 93.786C85.6217 93.501 85.7099 93.1315 85.8323 92.6725L83.8999 92.1572C83.7716 92.6383 83.6718 93.0521 83.6035 93.3938L85.5647 93.786ZM85.8148 92.7311C85.975 92.2504 86.1813 91.5996 86.4329 90.782L84.5213 90.1938C84.2716 91.0055 84.0705 91.6394 83.9174 92.0986L85.8148 92.7311ZM86.4334 90.7803L92.6844 70.3353L90.7718 69.7505L84.5208 90.1955L86.4334 90.7803ZM91.7281 71.0429H97.1801V69.0429H91.7281V71.0429ZM96.2273 69.7393L85.7463 102.639L87.6519 103.246L98.1329 70.3464L96.2273 69.7393ZM86.6991 101.943H83.1741V103.943H86.6991V101.943ZM84.0953 102.554L75.4003 81.9678L73.5579 82.746L82.2529 103.332L84.0953 102.554ZM74.073 83.2707L74.496 83.4587L75.3082 81.6311L74.8852 81.4431L74.073 83.2707ZM73.9769 82.1654L65.6109 102.563L67.4613 103.322L75.8273 82.9243L73.9769 82.1654ZM66.5361 101.943H63.1051V103.943H66.5361V101.943Z" fill="#2A0153" mask="url(#path-18-outside-1_4679_486)"/>
    <defs>
        <filter id="filter0_d_4679_486" x="0" y="0" width="174" height="173" filterUnits="userSpaceOnUse" color-interpolation-filters="sRGB">
            <feFlood flood-opacity="0" result="BackgroundImageFix"/>
            <feColorMatrix in="SourceAlpha" type="matrix" values="0 0 0 0 0 0 0 0 0 0 0 0 0 0 0 0 0 0 127 0" result="hardAlpha"/>
            <feOffset/>
            <feGaussianBlur stdDeviation="20"/>
            <feComposite in2="hardAlpha" operator="out"/>
            <feColorMatrix type="matrix" values="0 0 0 0 1 0 0 0 0 1 0 0 0 0 1 0 0 0 0.4 0"/>
            <feBlend mode="normal" in2="BackgroundImageFix" result="effect1_dropShadow_4679_486"/>
            <feBlend mode="normal" in="SourceGraphic" in2="effect1_dropShadow_4679_486" result="shape"/>
        </filter>
        <linearGradient id="paint0_linear_4679_486" x1="87" y1="41" x2="87" y2="133" gradientUnits="userSpaceOnUse">
            <stop stop-color="#FEA800" stop-opacity="0.89"/>
            <stop offset="1" stop-color="#2A0153"/>
        </linearGradient>
    </defs>
</svg>
