<svg width="201" height="201" viewBox="0 0 201 201" fill="none" xmlns="http://www.w3.org/2000/svg">
    <g clip-path="url(#clip0_4860_473)">
        <path d="M100.5 201C156.005 201 201 156.005 201 100.5C201 44.9954 156.005 0 100.5 0C44.9954 0 0 44.9954 0 100.5C0 156.005 44.9954 201 100.5 201Z" fill="#3F314E"/>
        <path d="M100.5 89.1272C118.756 89.1272 133.555 74.328 133.555 56.0722C133.555 37.8164 118.756 23.0171 100.5 23.0171C82.2446 23.0171 67.4453 37.8164 67.4453 56.0722C67.4453 74.328 82.2446 89.1272 100.5 89.1272Z" fill="#FFF8E5"/>
        <path d="M100.5 177.979C88.3557 177.979 76.5375 174.047 66.8126 166.773C57.0878 159.499 49.9787 149.272 46.5482 137.622C40.6281 117.518 55.6992 97.3594 76.6589 97.3594H124.341C145.301 97.3594 160.372 117.51 154.452 137.614C151.023 149.266 143.915 159.494 134.19 166.77C124.465 174.046 112.646 177.978 100.5 177.979Z" fill="#FEA800"/>
        <path d="M135.479 149.674L127.91 152.713C126.509 153.272 124.946 153.272 123.545 152.713L115.98 149.666C115.265 149.381 114.652 148.887 114.22 148.25C113.788 147.612 113.558 146.86 113.558 146.09V125.323C113.564 124.497 113.895 123.707 114.479 123.124C115.063 122.541 115.853 122.211 116.679 122.206H134.776C135.602 122.211 136.392 122.541 136.976 123.124C137.56 123.707 137.891 124.497 137.897 125.323V146.098C137.898 146.867 137.668 147.619 137.237 148.257C136.806 148.894 136.193 149.388 135.479 149.674Z" fill="#F7C337"/>
    </g>
    <defs>
        <clipPath id="clip0_4860_473">
            <rect width="201" height="201" fill="white"/>
        </clipPath>
    </defs>
</svg>
