<svg width="638" height="636" viewBox="0 0 638 636" fill="none" xmlns="http://www.w3.org/2000/svg">
    <g filter="url(#filter0_d_4709_1321)">
        <ellipse cx="319" cy="318" rx="279" ry="278" fill="url(#paint0_linear_4709_1321)" shape-rendering="crispEdges"/>
    </g>
    <path d="M460.119 427.843C492.772 427.843 519.245 401.466 519.245 368.926C519.245 336.386 492.772 310.01 460.119 310.01C427.466 310.01 400.992 336.386 400.992 368.926C400.992 401.466 427.466 427.843 460.119 427.843Z" fill="white" stroke="#2A0153"/>
    <rect x="454.884" y="335.545" width="11.516" height="17.7336" fill="#2A0153"/>
    <rect width="11.4946" height="17.7666" transform="matrix(0.694312 0.719661 -0.722161 0.691739 445.73 376.228)" fill="#2A0153"/>
    <rect width="11.4946" height="17.7666" transform="matrix(0.694312 0.719661 -0.722161 0.691739 480.278 341.804)" fill="#2A0153"/>
    <rect x="454.884" y="384.573" width="11.5159" height="17.7336" fill="#2A0153"/>
    <rect width="11.4747" height="17.7973" transform="matrix(0.0160206 0.999871 -0.999874 0.015906 445.46 363.71)" fill="#2A0153"/>
    <rect width="11.4747" height="17.7974" transform="matrix(0.0160206 0.999871 -0.999874 0.015906 493.618 363.71)" fill="#2A0153"/>
    <rect width="11.4944" height="17.7669" transform="matrix(-0.694831 0.719186 -0.721661 -0.692232 453.707 354.103)" fill="#2A0153"/>
    <path d="M510.386 260.151C510.386 287.393 488.221 309.48 460.877 309.48C433.532 309.48 411.368 287.393 411.368 260.151C411.368 232.909 433.532 210.822 460.877 210.822C488.221 210.822 510.386 232.909 510.386 260.151Z" fill="white" stroke="#2A0153"/>
    <rect x="456.412" y="231.677" width="9.82314" height="15.1268" fill="#2A0153"/>
    <rect width="9.80495" height="15.155" transform="matrix(0.694312 0.719661 -0.722161 0.691739 448.604 266.38)" fill="#2A0153"/>
    <rect width="9.80495" height="15.155" transform="matrix(0.694312 0.719661 -0.722161 0.691739 478.073 237.016)" fill="#2A0153"/>
    <rect x="456.412" y="273.498" width="9.82314" height="15.1268" fill="#2A0153"/>
    <rect width="9.78794" height="15.1812" transform="matrix(0.0160206 0.999871 -0.999874 0.015906 448.373 255.702)" fill="#2A0153"/>
    <rect width="9.78794" height="15.1812" transform="matrix(0.0160206 0.999871 -0.999874 0.015906 489.452 255.702)" fill="#2A0153"/>
    <rect width="9.80479" height="15.1552" transform="matrix(-0.694831 0.719186 -0.721662 -0.692232 455.408 247.507)" fill="#2A0153"/>
    <mask id="path-18-outside-1_4709_1321" maskUnits="userSpaceOnUse" x="113.244" y="219.314" width="274" height="202" fill="black">
        <rect fill="white" x="113.244" y="219.314" width="274" height="202"/>
        <path d="M178.639 420.314L115.084 220.814H147.859L186.334 345.644C187.854 349.824 189.184 354.764 190.324 360.464C191.464 366.164 192.509 371.674 193.459 376.994C194.599 382.124 195.454 386.209 196.024 389.249L187.759 388.964C190.609 378.894 192.794 371.104 194.314 365.594C196.024 360.084 197.354 355.904 198.304 353.054C199.254 350.014 200.109 347.449 200.869 345.359L236.779 255.299H264.424L299.194 345.359C301.094 349.919 302.709 354.479 304.039 359.039C305.559 363.409 306.889 367.874 308.029 372.434C309.169 376.804 310.404 381.459 311.734 386.399L304.324 388.394C305.274 383.264 305.939 379.274 306.319 376.424C306.889 373.384 307.364 370.914 307.744 369.014C308.124 367.114 308.504 365.309 308.884 363.599C309.264 361.699 309.834 359.324 310.594 356.474C311.544 353.624 312.779 349.729 314.299 344.789L352.204 220.814H385.264L321.709 420.314H300.334L247.609 295.484L250.174 296.624L199.444 420.314H178.639Z"/>
    </mask>
    <path d="M178.639 420.314L115.084 220.814H147.859L186.334 345.644C187.854 349.824 189.184 354.764 190.324 360.464C191.464 366.164 192.509 371.674 193.459 376.994C194.599 382.124 195.454 386.209 196.024 389.249L187.759 388.964C190.609 378.894 192.794 371.104 194.314 365.594C196.024 360.084 197.354 355.904 198.304 353.054C199.254 350.014 200.109 347.449 200.869 345.359L236.779 255.299H264.424L299.194 345.359C301.094 349.919 302.709 354.479 304.039 359.039C305.559 363.409 306.889 367.874 308.029 372.434C309.169 376.804 310.404 381.459 311.734 386.399L304.324 388.394C305.274 383.264 305.939 379.274 306.319 376.424C306.889 373.384 307.364 370.914 307.744 369.014C308.124 367.114 308.504 365.309 308.884 363.599C309.264 361.699 309.834 359.324 310.594 356.474C311.544 353.624 312.779 349.729 314.299 344.789L352.204 220.814H385.264L321.709 420.314H300.334L247.609 295.484L250.174 296.624L199.444 420.314H178.639Z" fill="white"/>
    <path d="M178.639 420.314L177.686 420.618L177.908 421.314H178.639V420.314ZM115.084 220.814V219.814H113.716L114.131 221.118L115.084 220.814ZM147.859 220.814L148.815 220.52L148.597 219.814H147.859V220.814ZM186.334 345.644L185.379 345.939L185.386 345.963L185.394 345.986L186.334 345.644ZM190.324 360.464L191.305 360.268L190.324 360.464ZM193.459 376.994L192.475 377.17L192.478 377.191L192.483 377.211L193.459 376.994ZM196.024 389.249L195.99 390.249L197.237 390.292L197.007 389.065L196.024 389.249ZM187.759 388.964L186.797 388.692L186.449 389.92L187.725 389.964L187.759 388.964ZM194.314 365.594L193.359 365.298L193.354 365.313L193.35 365.328L194.314 365.594ZM198.304 353.054L199.253 353.371L199.256 353.362L199.259 353.353L198.304 353.054ZM200.869 345.359L199.94 344.989L199.935 345.003L199.929 345.018L200.869 345.359ZM236.779 255.299V254.299H236.101L235.85 254.929L236.779 255.299ZM264.424 255.299L265.357 254.939L265.11 254.299H264.424V255.299ZM299.194 345.359L298.261 345.719L298.266 345.732L298.271 345.744L299.194 345.359ZM304.039 359.039L303.079 359.319L303.086 359.344L303.095 359.368L304.039 359.039ZM308.029 372.434L307.059 372.677L307.062 372.687L308.029 372.434ZM311.734 386.399L311.994 387.365L312.96 387.105L312.7 386.139L311.734 386.399ZM304.324 388.394L303.341 388.212L303.052 389.772L304.584 389.36L304.324 388.394ZM306.319 376.424L305.336 376.24L305.331 376.266L305.328 376.292L306.319 376.424ZM307.744 369.014L308.725 369.21L307.744 369.014ZM308.884 363.599L309.86 363.816L309.863 363.806L309.865 363.795L308.884 363.599ZM310.594 356.474L309.645 356.158L309.636 356.187L309.628 356.217L310.594 356.474ZM314.299 344.789L315.255 345.083L315.255 345.082L314.299 344.789ZM352.204 220.814V219.814H351.464L351.248 220.522L352.204 220.814ZM385.264 220.814L386.217 221.118L386.632 219.814H385.264V220.814ZM321.709 420.314V421.314H322.44L322.662 420.618L321.709 420.314ZM300.334 420.314L299.413 420.703L299.671 421.314H300.334V420.314ZM247.609 295.484L248.015 294.571L245.704 293.543L246.688 295.873L247.609 295.484ZM250.174 296.624L251.099 297.004L251.468 296.105L250.58 295.711L250.174 296.624ZM199.444 420.314V421.314H200.115L200.369 420.694L199.444 420.314ZM179.592 420.011L116.037 220.511L114.131 221.118L177.686 420.618L179.592 420.011ZM115.084 221.814H147.859V219.814H115.084V221.814ZM146.904 221.109L185.379 345.939L187.29 345.35L148.815 220.52L146.904 221.109ZM185.394 345.986C186.893 350.107 188.211 354.996 189.344 360.66L191.305 360.268C190.158 354.533 188.815 349.542 187.274 345.303L185.394 345.986ZM189.344 360.66C190.482 366.354 191.526 371.857 192.475 377.17L194.444 376.819C193.492 371.491 192.446 365.974 191.305 360.268L189.344 360.66ZM192.483 377.211C193.622 382.337 194.474 386.409 195.041 389.434L197.007 389.065C196.434 386.009 195.576 381.912 194.435 376.777L192.483 377.211ZM196.059 388.25L187.794 387.965L187.725 389.964L195.99 390.249L196.059 388.25ZM188.721 389.237C191.572 379.166 193.757 371.373 195.278 365.86L193.35 365.328C191.831 370.835 189.647 378.623 186.797 388.692L188.721 389.237ZM195.269 365.891C196.979 360.383 198.306 356.21 199.253 353.371L197.355 352.738C196.402 355.598 195.07 359.786 193.359 365.298L195.269 365.891ZM199.259 353.353C200.206 350.322 201.056 347.772 201.809 345.701L199.929 345.018C199.162 347.127 198.302 349.707 197.35 352.756L199.259 353.353ZM201.798 345.73L237.708 255.67L235.85 254.929L199.94 344.989L201.798 345.73ZM236.779 256.299H264.424V254.299H236.779V256.299ZM263.491 255.659L298.261 345.719L300.127 344.999L265.357 254.939L263.491 255.659ZM298.271 345.744C300.157 350.271 301.76 354.796 303.079 359.319L304.999 358.759C303.658 354.162 302.031 349.568 300.117 344.975L298.271 345.744ZM303.095 359.368C304.605 363.709 305.926 368.145 307.059 372.677L308.999 372.192C307.852 367.603 306.514 363.11 304.984 358.711L303.095 359.368ZM307.062 372.687C308.202 377.06 309.438 381.717 310.769 386.659L312.7 386.139C311.37 381.202 310.136 376.549 308.997 372.182L307.062 372.687ZM311.474 385.434L304.064 387.429L304.584 389.36L311.994 387.365L311.474 385.434ZM305.307 388.576C306.258 383.441 306.927 379.431 307.31 376.556L305.328 376.292C304.951 379.117 304.29 383.088 303.341 388.212L305.307 388.576ZM307.302 376.609C307.872 373.571 308.346 371.105 308.725 369.21L306.764 368.818C306.382 370.724 305.907 373.198 305.336 376.24L307.302 376.609ZM308.725 369.21C309.103 367.317 309.482 365.519 309.86 363.816L307.908 363.382C307.526 365.1 307.145 366.912 306.764 368.818L308.725 369.21ZM309.865 363.795C310.239 361.924 310.803 359.571 311.56 356.732L309.628 356.217C308.865 359.078 308.289 361.475 307.904 363.403L309.865 363.795ZM311.543 356.791C312.496 353.93 313.734 350.026 315.255 345.083L313.343 344.495C311.824 349.432 310.592 353.319 309.645 356.158L311.543 356.791ZM315.255 345.082L353.16 221.107L351.248 220.522L313.343 344.497L315.255 345.082ZM352.204 221.814H385.264V219.814H352.204V221.814ZM384.311 220.511L320.756 420.011L322.662 420.618L386.217 221.118L384.311 220.511ZM321.709 419.314H300.334V421.314H321.709V419.314ZM301.255 419.925L248.53 295.095L246.688 295.873L299.413 420.703L301.255 419.925ZM247.203 296.398L249.768 297.538L250.58 295.711L248.015 294.571L247.203 296.398ZM249.249 296.245L198.519 419.935L200.369 420.694L251.099 297.004L249.249 296.245ZM199.444 419.314H178.639V421.314H199.444V419.314Z" fill="#2A0153" mask="url(#path-18-outside-1_4709_1321)"/>
    <defs>
        <filter id="filter0_d_4709_1321" x="0" y="0" width="638" height="636" filterUnits="userSpaceOnUse" color-interpolation-filters="sRGB">
            <feFlood flood-opacity="0" result="BackgroundImageFix"/>
            <feColorMatrix in="SourceAlpha" type="matrix" values="0 0 0 0 0 0 0 0 0 0 0 0 0 0 0 0 0 0 127 0" result="hardAlpha"/>
            <feOffset/>
            <feGaussianBlur stdDeviation="20"/>
            <feComposite in2="hardAlpha" operator="out"/>
            <feColorMatrix type="matrix" values="0 0 0 0 1 0 0 0 0 1 0 0 0 0 1 0 0 0 0.4 0"/>
            <feBlend mode="normal" in2="BackgroundImageFix" result="effect1_dropShadow_4709_1321"/>
            <feBlend mode="normal" in="SourceGraphic" in2="effect1_dropShadow_4709_1321" result="shape"/>
        </filter>
        <linearGradient id="paint0_linear_4709_1321" x1="319" y1="45.9785" x2="319" y2="596" gradientUnits="userSpaceOnUse">
            <stop stop-color="#FEA800" stop-opacity="0.89"/>
            <stop offset="1" stop-color="#2A0153"/>
        </linearGradient>
    </defs>
</svg>
